<svg width="34" height="34" viewBox="0 0 34 34" fill="none" xmlns="http://www.w3.org/2000/svg">
<g clip-path="url(#clip0_248_1126)">
<path d="M0.03125 17C0.03125 26.35 7.68125 34 17.0312 34C26.3813 34 34.0312 26.35 34.0312 17C34.0312 7.65 26.3813 0 17.0312 0C7.68125 0 0.03125 7.65 0.03125 17Z" fill="#1ECCB0"/>
<path d="M14.6937 26.6687C14.0562 25.6062 13.2062 24.65 12.1437 24.0125C11.0812 23.375 10.0187 22.8437 8.74373 22.525C8.63748 22.525 8.53123 22.525 8.42498 22.6312C8.31873 22.7375 8.31873 22.8437 8.31873 22.95C8.31873 23.0562 8.31873 23.1625 8.42498 23.1625C9.80623 25.1812 11.9312 26.6687 14.2687 27.3062H14.375C14.4812 27.3062 14.4812 27.3062 14.5875 27.3062C14.5875 27.3062 14.6937 27.3062 14.6937 27.2L14.8 27.0937C14.8 27.0937 14.8 26.9875 14.8 26.8812C14.8 26.775 14.8 26.6687 14.6937 26.6687Z" fill="white"/>
<path d="M27.2312 14.1312V14.025C26.7 12.1125 25.6375 10.4125 24.15 9.13749C22.6625 7.86249 20.9625 6.90624 19.05 6.58749H18.9437C18.8375 6.58749 18.7312 6.58749 18.625 6.69374C18.5187 6.79999 18.5187 6.90624 18.5187 7.01249V7.11874C19.475 12.9625 18.8375 18.9125 16.7125 24.4375C16.7125 24.5437 16.6062 24.5437 16.6062 24.65C16.6062 24.7562 16.5 24.7562 16.3937 24.7562C16.2875 24.7562 16.2875 24.7562 16.1812 24.7562C16.1812 24.7562 16.075 24.7562 16.075 24.65L15.9687 24.5437C15.9687 24.5437 15.9687 24.4375 15.9687 24.3312C15.9687 24.3312 15.8625 23.5875 15.8625 23.2687C15.225 18.1687 13.7375 13.2812 11.2937 8.71249C11.2937 8.60624 11.1875 8.60624 11.1875 8.60624L11.0812 8.49999C11.0812 8.49999 10.975 8.49999 10.8687 8.49999C10.7625 8.49999 10.7625 8.49999 10.6562 8.49999C9.16873 9.66874 7.99998 11.1562 7.25623 12.9625C7.25623 13.0687 7.25623 13.175 7.25623 13.2812C7.25623 13.3875 7.36248 13.4937 7.46873 13.4937C9.80623 14.9812 11.7187 16.8937 13.1 19.3375C14.4812 21.675 15.225 24.4375 15.3312 27.0937C15.3312 27.2 15.3312 27.3062 15.4375 27.4125C15.5437 27.5187 15.65 27.5187 15.65 27.5187C15.8625 27.5187 16.1812 27.625 16.3937 27.625C16.5 27.625 16.6062 27.625 16.7125 27.5187C16.8187 27.4125 16.8187 27.4125 16.8187 27.3062C17.35 24.5437 18.5187 21.8875 20.325 19.6562C22.1312 17.425 24.3625 15.725 27.0187 14.5562C27.125 14.5562 27.125 14.45 27.2312 14.45C27.2312 14.2375 27.2312 14.2375 27.2312 14.1312Z" fill="white"/>
<path d="M26.275 22.2062C26.275 22.1 26.275 21.9938 26.1688 21.8875C26.0625 21.7813 25.9563 21.7812 25.85 21.7812H25.7438C22.45 22.525 19.475 24.3312 17.35 26.8812C17.2438 26.9875 17.2438 27.0938 17.2438 27.2C17.2438 27.3063 17.2438 27.4125 17.35 27.5187C17.4563 27.625 17.5625 27.625 17.6688 27.625C19.3688 27.5187 21.0688 26.9875 22.5563 26.1375C24.0438 25.2875 25.3188 24.0125 26.1688 22.525C26.275 22.4188 26.275 22.3125 26.275 22.2062Z" fill="white"/>
</g>
<defs>
<clipPath id="clip0_248_1126">
<rect width="34" height="34" fill="white"/>
</clipPath>
</defs>
</svg>
